<?xml version="1.0" encoding="UTF-8" standalone="no"?>
<svg
   xmlns:dc="http://purl.org/dc/elements/1.1/"
   xmlns:cc="http://creativecommons.org/ns#"
   xmlns:rdf="http://www.w3.org/1999/02/22-rdf-syntax-ns#"
   xmlns:svg="http://www.w3.org/2000/svg"
   xmlns="http://www.w3.org/2000/svg"
   xmlns:sodipodi="http://sodipodi.sourceforge.net/DTD/sodipodi-0.dtd"
   xmlns:inkscape="http://www.inkscape.org/namespaces/inkscape"
   inkscape:export-ydpi="96"
   inkscape:export-xdpi="96"
   inkscape:export-filename="/home/alevy/dev/aklevy.github.io/assets/icon_svg/old_tv.png"
   sodipodi:docname="25_cloud.svg"
   inkscape:version="1.0 (4035a4fb49, 2020-05-01)"
   id="svg8"
   version="1.1"
   viewBox="0 0 8.4666665 8.4666669"
   height="32"
   width="32">
  <defs
     id="defs2" />
  <sodipodi:namedview
     inkscape:pagecheckerboard="true"
     inkscape:document-rotation="0"
     inkscape:window-maximized="1"
     inkscape:window-y="0"
     inkscape:window-x="0"
     inkscape:window-height="1015"
     inkscape:window-width="1920"
     units="px"
     showgrid="false"
     inkscape:current-layer="layer1"
     inkscape:document-units="px"
     inkscape:cy="19.23553"
     inkscape:cx="13.811397"
     inkscape:zoom="15.776947"
     inkscape:pageshadow="2"
     inkscape:pageopacity="0.0"
     borderopacity="1.0"
     bordercolor="#666666"
     pagecolor="#ffffff"
     id="base" />
  <metadata
     id="metadata5">
    <rdf:RDF>
      <cc:Work
         rdf:about="">
        <dc:format>image/svg+xml</dc:format>
        <dc:type
           rdf:resource="http://purl.org/dc/dcmitype/StillImage" />
        <dc:title />
      </cc:Work>
    </rdf:RDF>
  </metadata>
  <g
     transform="translate(0,-288.53333)"
     id="layer1"
     inkscape:groupmode="layer"
     inkscape:label="Calque 1">
    <path
       style="fill:#ffffac;fill-opacity:1;stroke:#ffdcac;stroke-width:0.538164;stroke-linecap:round;stroke-linejoin:round;stroke-miterlimit:7;stroke-dasharray:none;stroke-opacity:1"
       id="path865"
       sodipodi:type="arc"
       sodipodi:cx="6.3789859"
       sodipodi:cy="291.84995"
       sodipodi:rx="0.97382331"
       sodipodi:ry="0.95336771"
       sodipodi:start="2.6249397"
       sodipodi:end="1.2018055"
       sodipodi:arc-type="arc"
       d="m 5.5322685,292.32088 a 0.97382331,0.95336771 0 0 1 0.1008683,-1.08391 0.97382331,0.95336771 0 0 1 1.0729707,-0.28499 0.97382331,0.95336771 0 0 1 0.6466168,0.88537 0.97382331,0.95336771 0 0 1 -0.6225053,0.90179"
       sodipodi:open="true" />
    <path
       id="path843"
       style="fill:#ecfeff;fill-opacity:1;stroke:#b3edff;stroke-width:0.529167;stroke-linecap:round;stroke-linejoin:round;stroke-miterlimit:7;stroke-dasharray:none;stroke-opacity:1"
       d="m 6.3946928,294.35111 c 0.6841872,-2e-5 1.0815804,-0.43087 1.0816053,-0.96236 -2.49e-5,-0.53148 -0.3974179,-0.96233 -1.0816053,-0.96235 -0.1812503,-9e-5 -0.3603182,0.0307 -0.5245724,0.0902 -0.1593018,-0.83107 -0.8870819,-1.43202 -1.7342376,-1.43201 -0.8002995,8e-5 -1.5004736,0.53778 -1.7062043,1.31028 -0.1353833,-0.064 -0.2835227,-0.0972 -0.4335594,-0.0972 -0.5553583,-10e-5 -1.00564904,0.4452 -1.00575046,0.99462 -1.131e-4,0.54956 0.45024056,0.9951 1.00575046,0.99499 0.2906869,-5e-5 0.5671281,-0.12455 0.758057,-0.34139 0.3349276,0.42066 0.8436156,0.66581 1.3817067,0.66589 0.5052837,-5e-5 0.9863344,-0.21632 1.3214154,-0.59408 0.2352888,0.21162 0.5774297,0.33329 0.9373946,0.33333 z"
       sodipodi:nodetypes="ccccccccccccc" />
  </g>
</svg>
