<?xml version="1.0" encoding="UTF-8" standalone="no"?>
<svg
   xmlns:dc="http://purl.org/dc/elements/1.1/"
   xmlns:cc="http://creativecommons.org/ns#"
   xmlns:rdf="http://www.w3.org/1999/02/22-rdf-syntax-ns#"
   xmlns:svg="http://www.w3.org/2000/svg"
   xmlns="http://www.w3.org/2000/svg"
   xmlns:sodipodi="http://sodipodi.sourceforge.net/DTD/sodipodi-0.dtd"
   xmlns:inkscape="http://www.inkscape.org/namespaces/inkscape"
   width="32px"
   height="32px"
   viewBox="0 0 32 32"
   version="1.1"
   id="SVGRoot"
   sodipodi:docname="48.svg"
   inkscape:version="1.0 (4035a4fb49, 2020-05-01)">
  <defs
     id="defs10" />
  <sodipodi:namedview
     inkscape:snap-global="false"
     id="base"
     pagecolor="#ffffff"
     bordercolor="#666666"
     borderopacity="1.0"
     inkscape:pageopacity="0.0"
     inkscape:pageshadow="2"
     inkscape:zoom="12.34807"
     inkscape:cx="10.824264"
     inkscape:cy="2.9619231"
     inkscape:document-units="px"
     inkscape:current-layer="layer1"
     showgrid="false"
     inkscape:window-width="1920"
     inkscape:window-height="1015"
     inkscape:window-x="0"
     inkscape:window-y="0"
     inkscape:window-maximized="1"
     inkscape:grid-bbox="true"
     inkscape:document-rotation="0" />
  <metadata
     id="metadata13">
    <rdf:RDF>
      <cc:Work
         rdf:about="">
        <dc:format>image/svg+xml</dc:format>
        <dc:type
           rdf:resource="http://purl.org/dc/dcmitype/StillImage" />
        <dc:title></dc:title>
      </cc:Work>
    </rdf:RDF>
  </metadata>
  <g
     inkscape:label="Calque 1"
     inkscape:groupmode="layer"
     id="layer1"
     style="display:inline">
    <path
       transform="matrix(0.42014564,0.38233428,-0.38267845,0.42052385,14.45466,2.6086163)"
       d="m 29.496723,28.96211 c -3.245569,2.917966 -4.105519,-3.831751 -8.220691,-2.377927 -4.115171,1.453823 -0.544333,7.245828 -4.902609,7.014178 C 12.015146,33.366711 16.17984,27.985863 12.241966,26.104006 8.304092,24.22215 6.7334901,30.842679 3.8155245,27.597111 0.89755862,24.351543 7.6472759,23.491592 6.193452,19.376421 4.7396283,15.26125 -1.0523762,18.832088 -0.82072634,14.473812 -0.58907642,10.115535 4.7917714,14.280229 6.6736282,10.342354 8.5554849,6.4044805 1.9349554,4.8338786 5.1805234,1.915913 c 3.2455684,-2.9179659 4.1055191,3.8317514 8.2206906,2.3779276 4.115171,-1.4538238 0.544333,-7.2458283 4.902609,-7.0141784 4.358277,0.2316499 0.193583,5.6124977 4.131457,7.4943546 3.937874,1.8818566 5.508476,-4.73867289 8.426442,-1.4931048 2.917965,3.2455683 -3.831752,4.105519 -2.377928,8.22069 1.453824,4.115171 7.245828,0.544333 7.014178,4.90261 -0.231649,4.358276 -5.612497,0.193583 -7.494354,4.131457 -1.881857,3.937874 4.738673,5.508476 1.493105,8.426441 z"
       inkscape:randomized="0"
       inkscape:rounded="0.51"
       inkscape:flatsided="false"
       sodipodi:arg2="1.231199"
       sodipodi:arg1="0.83849988"
       sodipodi:r2="11.820238"
       sodipodi:r1="18.184982"
       sodipodi:cy="15.439012"
       sodipodi:cx="17.338623"
       sodipodi:sides="8"
       id="path12"
       style="fill:#4a1f7c;fill-opacity:1;stroke:#4a1f7c;stroke-width:1.75956;stroke-linecap:round;stroke-linejoin:round;stroke-miterlimit:4;stroke-dasharray:none;stroke-dashoffset:8.3824;stroke-opacity:1;paint-order:fill markers stroke"
       sodipodi:type="star" />
    <ellipse
       ry="4.0000019"
       rx="3.9999998"
       cy="16"
       cx="16"
       id="path837"
       style="fill:#7732c8;fill-opacity:1;stroke:none;stroke-width:1;stroke-linecap:round;stroke-linejoin:round;stroke-miterlimit:4;stroke-dasharray:none;stroke-dashoffset:8.3824;stroke-opacity:1;paint-order:fill markers stroke" />
  </g>
</svg>
