<?xml version="1.0" encoding="UTF-8" standalone="no"?>
<svg
   xmlns:dc="http://purl.org/dc/elements/1.1/"
   xmlns:cc="http://creativecommons.org/ns#"
   xmlns:rdf="http://www.w3.org/1999/02/22-rdf-syntax-ns#"
   xmlns:svg="http://www.w3.org/2000/svg"
   xmlns="http://www.w3.org/2000/svg"
   xmlns:xlink="http://www.w3.org/1999/xlink"
   xmlns:sodipodi="http://sodipodi.sourceforge.net/DTD/sodipodi-0.dtd"
   xmlns:inkscape="http://www.inkscape.org/namespaces/inkscape"
   width="32"
   height="32"
   viewBox="0 0 8.4666665 8.4666669"
   version="1.1"
   id="svg8"
   inkscape:version="1.0 (4035a4fb49, 2020-05-01)"
   sodipodi:docname="50_microphone.svg"
   inkscape:export-filename="/home/alevy/dev/aklevy.github.io/assets/icon_svg/old_tv.png"
   inkscape:export-xdpi="96"
   inkscape:export-ydpi="96">
  <defs
     id="defs2">
    <linearGradient
       inkscape:collect="always"
       id="linearGradient837">
      <stop
         style="stop-color:#aa8edb;stop-opacity:1;"
         offset="0"
         id="stop833" />
      <stop
         style="stop-color:#aaffdb;stop-opacity:1"
         offset="1"
         id="stop835" />
    </linearGradient>
    <linearGradient
       inkscape:collect="always"
       xlink:href="#linearGradient837"
       id="linearGradient852"
       x1="4.4333134"
       y1="291.47226"
       x2="4.4390178"
       y2="298.27225"
       gradientUnits="userSpaceOnUse"
       gradientTransform="matrix(3.7271498,0,0,3.260768,-0.52362332,-940.42337)" />
    <linearGradient
       inkscape:collect="always"
       xlink:href="#linearGradient837"
       id="linearGradient862"
       x1="2.5624771"
       y1="291.53769"
       x2="2.5689821"
       y2="298.42923"
       gradientUnits="userSpaceOnUse"
       gradientTransform="matrix(0.86477356,0,0,0.85128226,2.0173708,42.998308)" />
    <linearGradient
       inkscape:collect="always"
       xlink:href="#linearGradient837"
       id="linearGradient875"
       x1="4.5217991"
       y1="291.9982"
       x2="4.5217991"
       y2="298.08362"
       gradientUnits="userSpaceOnUse"
       gradientTransform="translate(-0.2884657,-0.81903236)" />
  </defs>
  <sodipodi:namedview
     id="base"
     pagecolor="#ffffff"
     bordercolor="#666666"
     borderopacity="1.0"
     inkscape:pageopacity="0.0"
     inkscape:pageshadow="2"
     inkscape:zoom="22.035531"
     inkscape:cx="24.818754"
     inkscape:cy="17.221595"
     inkscape:document-units="px"
     inkscape:current-layer="layer1"
     showgrid="true"
     units="px"
     inkscape:window-width="1920"
     inkscape:window-height="1015"
     inkscape:window-x="0"
     inkscape:window-y="0"
     inkscape:window-maximized="1"
     inkscape:document-rotation="0"
     inkscape:pagecheckerboard="true"
     inkscape:snap-global="true">
    <inkscape:grid
       type="xygrid"
       id="grid12" />
  </sodipodi:namedview>
  <metadata
     id="metadata5">
    <rdf:RDF>
      <cc:Work
         rdf:about="">
        <dc:format>image/svg+xml</dc:format>
        <dc:type
           rdf:resource="http://purl.org/dc/dcmitype/StillImage" />
        <dc:title></dc:title>
      </cc:Work>
    </rdf:RDF>
  </metadata>
  <g
     inkscape:label="Calque 1"
     inkscape:groupmode="layer"
     id="layer1"
     transform="translate(0,-288.53333)">
    <path
       id="rect844"
       style="fill:url(#linearGradient852);fill-opacity:1;stroke-width:0.999999;stroke-linecap:round;stroke-linejoin:round;stroke-dashoffset:8.3824;paint-order:fill markers stroke"
       d="M 16 3.8652344 C 13.840986 3.8652344 12.104149 5.695957 12.015625 8 L 15 8.015625 L 14.992188 9.0195312 L 12.003906 9.0039062 L 12.003906 8.1367188 C 12.003772 8.1513838 12 8.1649863 12 8.1796875 L 12 10 L 14.996094 10.015625 L 14.990234 11.019531 L 12 11.003906 L 12 12 L 14.996094 12.015625 L 14.990234 13.019531 L 12 13.003906 L 12 15.451172 C 12 17.840967 13.784 19.765625 16 19.765625 C 18.216 19.765625 20 17.840967 20 15.451172 L 20 8.1796875 C 20 8.1629611 19.996268 8.1475397 19.996094 8.1308594 L 19.990234 9.0195312 L 17 9.0039062 L 17 8 L 19.984375 8.015625 C 19.903061 5.7042909 18.163814 3.8652344 16 3.8652344 z M 17 10 L 19.996094 10.015625 L 19.990234 11.019531 L 17 11.003906 L 17 10 z M 17 12 L 19.996094 12.015625 L 19.990234 13.019531 L 17 13.003906 L 17 12 z "
       transform="matrix(0.26458333,0,0,0.26458333,0,288.53333)" />
    <path
       sodipodi:nodetypes="cccc"
       d="m 5.87375,292.4509 c 4e-7,0.64836 -0.2505217,1.24714 -0.7853431,1.5695 -0.5348548,0.3223 -1.1927986,0.31887 -1.7245865,-0.009 -0.5318214,-0.32781 -0.7768851,-0.92992 -0.7709037,-1.57825"
       style="fill:none;stroke:url(#linearGradient862);stroke-width:0.529167;stroke-linecap:round;stroke-linejoin:round;stroke-miterlimit:4;stroke-dasharray:none;stroke-dashoffset:8.3824;paint-order:fill markers stroke"
       id="path854" />
    <path
       id="path866"
       style="fill:none;stroke:url(#linearGradient875);stroke-width:0.529167;stroke-linecap:butt;stroke-linejoin:miter;stroke-miterlimit:4;stroke-dasharray:none;stroke-opacity:1"
       d="m 2.6458333,295.67408 3.1750001,0.006 m -1.5875001,-1.48655 v 1.48425"
       sodipodi:nodetypes="cccc" />
  </g>
</svg>
