<?xml version="1.0" encoding="UTF-8" standalone="no"?>
<svg
   xmlns:dc="http://purl.org/dc/elements/1.1/"
   xmlns:cc="http://creativecommons.org/ns#"
   xmlns:rdf="http://www.w3.org/1999/02/22-rdf-syntax-ns#"
   xmlns:svg="http://www.w3.org/2000/svg"
   xmlns="http://www.w3.org/2000/svg"
   xmlns:xlink="http://www.w3.org/1999/xlink"
   xmlns:sodipodi="http://sodipodi.sourceforge.net/DTD/sodipodi-0.dtd"
   xmlns:inkscape="http://www.inkscape.org/namespaces/inkscape"
   inkscape:export-ydpi="96"
   inkscape:export-xdpi="96"
   inkscape:export-filename="/home/alevy/dev/aklevy.github.io/assets/icon_svg/old_tv.png"
   sodipodi:docname="51_error.svg"
   inkscape:version="1.0 (4035a4fb49, 2020-05-01)"
   id="svg8"
   version="1.1"
   viewBox="0 0 8.4666665 8.4666669"
   height="32"
   width="32">
  <defs
     id="defs2">
    <linearGradient
       inkscape:collect="always"
       id="linearGradient871">
      <stop
         style="stop-color:#db0707;stop-opacity:1"
         offset="0"
         id="stop867" />
      <stop
         style="stop-color:#ffaaaa;stop-opacity:1"
         offset="1"
         id="stop869" />
    </linearGradient>
    <linearGradient
       gradientTransform="matrix(0.26458333,0,0,0.26458333,4.9999997e-8,288.53333)"
       gradientUnits="userSpaceOnUse"
       y2="32"
       x2="16"
       y1="0"
       x1="16"
       id="linearGradient865"
       xlink:href="#linearGradient871"
       inkscape:collect="always" />
  </defs>
  <sodipodi:namedview
     inkscape:snap-global="true"
     inkscape:pagecheckerboard="true"
     inkscape:document-rotation="0"
     inkscape:window-maximized="1"
     inkscape:window-y="0"
     inkscape:window-x="0"
     inkscape:window-height="1015"
     inkscape:window-width="1920"
     units="px"
     showgrid="true"
     inkscape:current-layer="layer1"
     inkscape:document-units="px"
     inkscape:cy="9.6564486"
     inkscape:cx="28.213764"
     inkscape:zoom="21.313463"
     inkscape:pageshadow="2"
     inkscape:pageopacity="0.0"
     borderopacity="1.0"
     bordercolor="#666666"
     pagecolor="#ffffff"
     id="base">
    <inkscape:grid
       id="grid12"
       type="xygrid" />
  </sodipodi:namedview>
  <metadata
     id="metadata5">
    <rdf:RDF>
      <cc:Work
         rdf:about="">
        <dc:format>image/svg+xml</dc:format>
        <dc:type
           rdf:resource="http://purl.org/dc/dcmitype/StillImage" />
        <dc:title />
      </cc:Work>
    </rdf:RDF>
  </metadata>
  <g
     transform="translate(0,-288.53333)"
     id="layer1"
     inkscape:groupmode="layer"
     inkscape:label="Calque 1">
    <path
       d="m 4.2281657,290.12083 a 2.6458332,2.6458332 0 0 0 -2.6406657,2.64583 2.6458332,2.6458332 0 0 0 2.6458333,2.64584 2.6458332,2.6458332 0 0 0 2.6458333,-2.64584 2.6458332,2.6458332 0 0 0 -2.6458333,-2.64583 2.6458332,2.6458332 0 0 0 -0.00517,0 z m -1.1911417,1.05885 a 0.396875,0.396875 0 0 1 0.2873208,0.11524 l 0.9089885,0.90899 0.9089885,-0.90899 a 0.396875,0.396875 0 0 1 0.2754352,-0.11524 0.396875,0.396875 0 0 1 0.2873211,0.11524 0.396875,0.396875 0 0 1 0,0.56275 l -0.9089885,0.90899 0.9089885,0.90899 a 0.396875,0.396875 0 0 1 0,0.56276 0.396875,0.396875 0 0 1 -0.5627563,0 l -0.9089885,-0.90899 -0.9089885,0.90899 a 0.396875,0.396875 0 0 1 -0.5627563,0 0.396875,0.396875 0 0 1 0,-0.56276 l 0.9089885,-0.90899 -0.9089885,-0.90899 a 0.396875,0.396875 0 0 1 0,-0.56275 0.396875,0.396875 0 0 1 0.2754355,-0.11524 z"
       style="fill:url(#linearGradient865);fill-opacity:1;stroke-width:0.264583;stroke-linecap:round;stroke-linejoin:round;stroke-dashoffset:8.3824;paint-order:fill markers stroke"
       id="path17" />
  </g>
</svg>
