<?xml version="1.0" encoding="UTF-8" standalone="no"?>
<svg
   xmlns:dc="http://purl.org/dc/elements/1.1/"
   xmlns:cc="http://creativecommons.org/ns#"
   xmlns:rdf="http://www.w3.org/1999/02/22-rdf-syntax-ns#"
   xmlns:svg="http://www.w3.org/2000/svg"
   xmlns="http://www.w3.org/2000/svg"
   xmlns:xlink="http://www.w3.org/1999/xlink"
   xmlns:sodipodi="http://sodipodi.sourceforge.net/DTD/sodipodi-0.dtd"
   xmlns:inkscape="http://www.inkscape.org/namespaces/inkscape"
   inkscape:version="1.0 (4035a4fb49, 2020-05-01)"
   sodipodi:docname="55.svg"
   id="SVGRoot"
   version="1.1"
   viewBox="0 0 32 32"
   height="32px"
   width="32px">
  <defs
     id="defs10">
    <linearGradient
       id="linearGradient836"
       inkscape:collect="always">
      <stop
         id="stop832"
         offset="0"
         style="stop-color:#aa8edb;stop-opacity:1" />
      <stop
         id="stop834"
         offset="1"
         style="stop-color:#aaffdb;stop-opacity:1" />
    </linearGradient>
    <linearGradient
       inkscape:collect="always"
       xlink:href="#linearGradient836"
       id="linearGradient845"
       x1="16.972704"
       y1="4"
       x2="16.972704"
       y2="27"
       gradientUnits="userSpaceOnUse"
       gradientTransform="translate(-0.97270373)" />
  </defs>
  <sodipodi:namedview
     inkscape:document-rotation="0"
     inkscape:grid-bbox="true"
     inkscape:window-maximized="1"
     inkscape:window-y="0"
     inkscape:window-x="0"
     inkscape:window-height="1015"
     inkscape:window-width="1920"
     showgrid="true"
     inkscape:current-layer="layer1"
     inkscape:document-units="px"
     inkscape:cy="14.46815"
     inkscape:cx="19.151664"
     inkscape:zoom="40.770047"
     inkscape:pageshadow="2"
     inkscape:pageopacity="0.0"
     borderopacity="1.0"
     bordercolor="#666666"
     pagecolor="#ffffff"
     id="base"
     inkscape:snap-global="false">
    <inkscape:grid
       type="xygrid"
       id="grid11" />
  </sodipodi:namedview>
  <metadata
     id="metadata13">
    <rdf:RDF>
      <cc:Work
         rdf:about="">
        <dc:format>image/svg+xml</dc:format>
        <dc:type
           rdf:resource="http://purl.org/dc/dcmitype/StillImage" />
        <dc:title></dc:title>
      </cc:Work>
    </rdf:RDF>
  </metadata>
  <g
     style="display:inline"
     id="layer1"
     inkscape:groupmode="layer"
     inkscape:label="Calque 1">
    <path
       id="path14"
       style="fill:url(#linearGradient845);fill-opacity:1;stroke:none;stroke-width:3;stroke-linecap:round;stroke-linejoin:round;paint-order:fill markers stroke"
       d="m 16,5.046875 c -5.15659,1e-7 -11.2921321,2.9557179 -11.3378906,8.787109 -0.045759,5.831392 3.6714842,7.628115 9.1484376,9.126954 0.71504,0.195678 3.731675,2.120373 6.673983,1.962437 -0.231074,-0.660979 -1.095077,-2.501675 0.339689,-3.276891 3.248429,-1.755154 6.427448,-2.350494 6.511719,-7.8125 C 27.420203,8.3719791 21.15659,5.046875 16,5.046875 Z M 10.425895,10 h 11.100173 0.0019 c 0.02596,6.43e-4 0.05187,0.0022 0.07768,0.0049 0.02604,0.0022 0.05196,0.0055 0.07768,0.0097 0.312161,0.05223 0.5727,0.244675 0.690148,0.509767 0.01927,0.04369 0.03437,0.08877 0.04517,0.134748 0.01029,0.04547 0.01634,0.09162 0.01807,0.137994 0.0011,0.02326 0.0011,0.04655 0,0.06981 -0.0023,0.04642 -0.009,0.09258 -0.01987,0.137994 -0.005,0.02295 -0.01098,0.0457 -0.01807,0.06818 -0.008,0.02253 -0.01702,0.04473 -0.0271,0.06656 -0.03843,0.08655 -0.09279,0.166674 -0.160794,0.237025 -0.119687,0.123829 -0.277465,0.213076 -0.453473,0.256508 -0.02503,0.0064 -0.05034,0.01179 -0.07588,0.01623 -0.05133,0.0082 -0.103308,0.01256 -0.155414,0.01295 H 10.425895 c -0.02656,-5.97e-4 -0.05309,-0.0022 -0.07949,-0.0049 -0.02604,-0.0022 -0.05196,-0.0055 -0.07769,-0.0097 -0.05101,-0.0081 -0.10117,-0.02006 -0.149954,-0.03572 -0.07294,-0.02455 -0.1421437,-0.05728 -0.2059599,-0.09741 -0.042391,-0.02619 -0.082275,-0.05552 -0.1192402,-0.08767 -0.093526,-0.08163 -0.1667921,-0.180113 -0.2149935,-0.288976 -0.00947,-0.02186 -0.017911,-0.04406 -0.025294,-0.06656 -0.022248,-0.06702 -0.034995,-0.136292 -0.03794,-0.206179 -0.00255,-0.0466 -7.43e-4,-0.0933 0.00542,-0.139618 0.00657,-0.0462 0.017449,-0.09181 0.03252,-0.136372 0.00797,-0.02252 0.017017,-0.04473 0.0271,-0.06656 0.00926,-0.02148 0.019504,-0.0426 0.030713,-0.06331 0.01167,-0.02104 0.024329,-0.04162 0.03794,-0.06169 0.013574,-0.01948 0.028039,-0.03843 0.04336,-0.05682 0.015384,-0.01901 0.031659,-0.03743 0.04878,-0.0552 0.016683,-0.01742 0.034163,-0.03421 0.052394,-0.05033 0.019114,-0.01645 0.039006,-0.03216 0.05962,-0.04708 0.019812,-0.01483 0.040306,-0.02892 0.061426,-0.04221 0.04296,-0.0261 0.088286,-0.04891 0.1355004,-0.06818 0.04658,-0.01983 0.09493,-0.03612 0.144533,-0.0487 0.05028,-0.01254 0.101655,-0.02122 0.153567,-0.02598 0.02583,-0.002 0.05175,-0.0031 0.07769,-0.0032 z m 0.0045,3 h 11.157207 0.0019 c 0.02609,5.96e-4 0.05214,0.0021 0.07808,0.0045 0.02617,0.0021 0.05222,0.0051 0.07808,0.009 0.313765,0.04845 0.575643,0.226957 0.693693,0.472852 0.01937,0.04052 0.03455,0.08234 0.0454,0.12499 0.01035,0.04217 0.01643,0.08499 0.01816,0.128001 0.0011,0.02157 0.0011,0.04318 0,0.06476 -0.0023,0.04305 -0.009,0.08587 -0.01997,0.128001 -0.005,0.02129 -0.01104,0.04239 -0.01816,0.06325 -0.008,0.02089 -0.01711,0.04149 -0.02724,0.06174 -0.03863,0.08028 -0.09327,0.154604 -0.161619,0.21986 -0.120303,0.114862 -0.278891,0.197646 -0.455804,0.237933 -0.02516,0.0059 -0.0506,0.01093 -0.07627,0.01506 -0.05159,0.0076 -0.103838,0.01165 -0.156212,0.01201 H 10.430378 c -0.0267,-5.53e-4 -0.05336,-0.0021 -0.0799,-0.0045 -0.02617,-0.0021 -0.05222,-0.0051 -0.07809,-0.009 -0.05127,-0.0076 -0.10169,-0.0186 -0.150724,-0.03313 -0.07332,-0.02277 -0.1428743,-0.05313 -0.2070184,-0.09035 -0.042609,-0.0243 -0.082698,-0.0515 -0.1198529,-0.08132 -0.094007,-0.07572 -0.1676491,-0.16707 -0.2160982,-0.26805 -0.00952,-0.02028 -0.018003,-0.04087 -0.025424,-0.06174 -0.022363,-0.06217 -0.035175,-0.126422 -0.038135,-0.191248 -0.00257,-0.04322 -7.469e-4,-0.08654 0.00545,-0.129508 0.0066,-0.04285 0.017538,-0.08516 0.032687,-0.126495 0.00801,-0.02089 0.017105,-0.04149 0.027239,-0.06174 0.00931,-0.01992 0.019604,-0.03951 0.030871,-0.05873 0.01173,-0.01952 0.024454,-0.03861 0.038135,-0.05723 0.013643,-0.01807 0.028183,-0.03564 0.043583,-0.05271 0.015463,-0.01763 0.031821,-0.03472 0.04903,-0.0512 0.016768,-0.01616 0.034338,-0.03173 0.052663,-0.04669 0.019213,-0.01526 0.039206,-0.02983 0.059926,-0.04367 0.019914,-0.01376 0.040513,-0.02682 0.061742,-0.03915 0.043181,-0.02421 0.08874,-0.04537 0.1361967,-0.06325 0.04682,-0.01839 0.09542,-0.0335 0.145276,-0.04518 0.05054,-0.01163 0.102176,-0.01968 0.154356,-0.02409 0.02597,-0.0019 0.05202,-0.0029 0.07808,-0.003 z m -0.0063,3 h 11.075802 0.0018 c 0.0259,6.3e-4 0.05176,0.0022 0.07751,0.0048 0.02598,0.0022 0.05184,0.0054 0.07751,0.0095 0.311476,0.0512 0.571443,0.23983 0.688633,0.499674 0.01923,0.04282 0.0343,0.08701 0.04507,0.132079 0.01027,0.04457 0.01631,0.08981 0.01803,0.135262 0.0011,0.0228 0.0011,0.04563 0,0.06842 -0.0023,0.0455 -0.009,0.09074 -0.01983,0.135262 -0.005,0.02249 -0.01096,0.04479 -0.01803,0.06683 -0.0079,0.02208 -0.01698,0.04384 -0.02704,0.06525 -0.03835,0.08483 -0.09259,0.163374 -0.16044,0.232333 -0.119425,0.121377 -0.276857,0.208856 -0.452478,0.251428 -0.02498,0.0063 -0.05023,0.01155 -0.07571,0.01591 -0.05122,0.0081 -0.10308,0.01232 -0.155072,0.0127 H 10.424081 c -0.02651,-5.85e-4 -0.05297,-0.0022 -0.07932,-0.0048 -0.02598,-0.0022 -0.05184,-0.0054 -0.07752,-0.0095 -0.0509,-0.008 -0.100947,-0.01966 -0.149624,-0.03501 -0.07278,-0.02406 -0.1418318,-0.05614 -0.2055079,-0.09548 -0.042298,-0.02567 -0.082095,-0.05442 -0.1189784,-0.08593 -0.093321,-0.08002 -0.1664259,-0.176546 -0.2145215,-0.283254 -0.00945,-0.02142 -0.017872,-0.04319 -0.025238,-0.06525 -0.0222,-0.06569 -0.034918,-0.133593 -0.037857,-0.202096 -0.00255,-0.04568 -7.415e-4,-0.09145 0.00541,-0.136854 0.00655,-0.04528 0.01741,-0.09 0.032448,-0.133671 0.00796,-0.02208 0.01698,-0.04384 0.027041,-0.06524 0.00924,-0.02105 0.019461,-0.04176 0.030646,-0.06206 0.011644,-0.02062 0.024275,-0.04079 0.037857,-0.06047 0.013544,-0.01908 0.027978,-0.03767 0.043265,-0.0557 0.01535,-0.01863 0.031589,-0.03669 0.048673,-0.05411 0.016646,-0.01708 0.034088,-0.03354 0.052279,-0.04933 0.019073,-0.01612 0.03892,-0.03152 0.059489,-0.04615 0.019768,-0.01454 0.040217,-0.02835 0.061292,-0.04137 0.042866,-0.02558 0.088092,-0.04794 0.1352024,-0.06683 0.04648,-0.01943 0.09472,-0.0354 0.144216,-0.04774 0.05017,-0.01229 0.101432,-0.0208 0.15323,-0.02546 0.02578,-0.002 0.05164,-0.003 0.07752,-0.0031 z"
       sodipodi:nodetypes="ssscsssccccccccccccccccccccccccccccccccccccccccccccccccccccccccccccccccccccccccccccccccccccccccccscccccccccccccccccccccccccc" />
  </g>
</svg>
