<?xml version="1.0" encoding="UTF-8" standalone="no"?>
<svg
   xmlns:dc="http://purl.org/dc/elements/1.1/"
   xmlns:cc="http://creativecommons.org/ns#"
   xmlns:rdf="http://www.w3.org/1999/02/22-rdf-syntax-ns#"
   xmlns:svg="http://www.w3.org/2000/svg"
   xmlns="http://www.w3.org/2000/svg"
   xmlns:sodipodi="http://sodipodi.sourceforge.net/DTD/sodipodi-0.dtd"
   xmlns:inkscape="http://www.inkscape.org/namespaces/inkscape"
   inkscape:export-ydpi="48"
   inkscape:export-xdpi="48"
   inkscape:export-filename="/home/alevy/dev/score/src/lib/resources/icons/new_file_off.png"
   inkscape:version="1.0 (4035a4fb49, 2020-05-01)"
   height="32"
   width="32"
   sodipodi:docname="59.svg"
   xml:space="preserve"
   viewBox="0 0 32 32"
   y="0px"
   x="0px"
   id="Calque_1"
   version="1.1"><metadata
   id="metadata17"><rdf:RDF><cc:Work
       rdf:about=""><dc:format>image/svg+xml</dc:format><dc:type
         rdf:resource="http://purl.org/dc/dcmitype/StillImage" /><dc:title>boutons</dc:title></cc:Work></rdf:RDF></metadata><defs
   id="defs15" /><sodipodi:namedview
   inkscape:snap-global="false"
   inkscape:document-rotation="0"
   inkscape:current-layer="layer2"
   inkscape:window-maximized="1"
   inkscape:window-y="0"
   inkscape:window-x="0"
   inkscape:cy="25.406536"
   inkscape:cx="8.6882385"
   inkscape:zoom="19.414206"
   showgrid="true"
   id="namedview13"
   inkscape:window-height="1015"
   inkscape:window-width="1920"
   inkscape:pageshadow="2"
   inkscape:pageopacity="0"
   guidetolerance="10"
   gridtolerance="10"
   objecttolerance="10"
   borderopacity="1"
   bordercolor="#666666"
   pagecolor="#ffffff"><inkscape:grid
     id="grid863"
     type="xygrid" /></sodipodi:namedview>
<style
   id="style2"
   type="text/css">
	.st0{display:none;fill:#3D3D3D;}
	.st1{display:none;fill:#000100;}
	.st2{fill:#808080;}
</style>
<title
   id="title4">boutons</title>
<rect
   style="display:none;fill:#3d3d3d"
   id="rect6"
   height="27.9"
   width="27.9"
   class="st0"
   y="3.5999985"
   x="0.5" />
<path
   style="display:none;fill:#000100"
   inkscape:connector-curvature="0"
   id="path8"
   d="M 28.9,32 H 0 V 3.1 H 28.9 Z M 1,31 H 27.9 V 4.1 H 1 Z"
   class="st1" />

<g
   inkscape:groupmode="layer"
   id="layer2"
   inkscape:label="Icon 1"
   style="display:inline"><path
     style="display:inline;vector-effect:none;fill:none;fill-opacity:1;fill-rule:nonzero;stroke:#000000;stroke-width:2;stroke-linecap:round;stroke-linejoin:round;stroke-miterlimit:5.66667;stroke-dasharray:none;stroke-dashoffset:0;stroke-opacity:1;paint-order:normal"
     d="M 12.000061,9.7983708 12,7.8129777 c -1.4e-5,-0.4079123 0.349591,-0.7362407 0.783347,-0.7362453 l 12.973929,-0.076699 c 0.401632,-0.00391 0.769755,0.5022863 0.783205,0.8896438 V 17.949924 c 0,0.407911 -0.349451,0.736305 -0.783205,0.736305 h -1.942314"
     id="path846"
     inkscape:connector-curvature="0"
     sodipodi:nodetypes="csccccsc" /><path
     sodipodi:nodetypes="csccccsc"
     inkscape:connector-curvature="0"
     id="path841"
     d="M 9.0000619,12.79837 9,10.812978 c -1.27e-5,-0.407912 0.3496002,-0.736241 0.7833682,-0.736245 l 12.9742668,-0.0767 c 0.401643,-0.0039 0.769775,0.502286 0.783227,0.889645 v 10.060246 c 0,0.407913 -0.34946,0.736305 -0.783227,0.736305 h -1.942363"
     style="display:inline;vector-effect:none;fill:none;fill-opacity:1;fill-rule:nonzero;stroke:#000000;stroke-width:2;stroke-linecap:round;stroke-linejoin:round;stroke-miterlimit:5.66667;stroke-dasharray:none;stroke-dashoffset:0;stroke-opacity:1;paint-order:normal" /><path
     style="display:inline;vector-effect:none;fill:none;fill-opacity:1;fill-rule:nonzero;stroke:#000000;stroke-width:2;stroke-linecap:round;stroke-linejoin:round;stroke-miterlimit:5.66667;stroke-dasharray:none;stroke-dashoffset:0;stroke-opacity:1;paint-order:normal"
     d="m 6.0079552,23.468867 -6.2e-5,-9.655894 c -2.7e-6,-0.407912 0.3496004,-0.736366 0.7833675,-0.73637 l 12.9742673,-0.07657 c 0.401645,-0.0039 0.769775,0.502286 0.783227,0.889644 l -1.01e-4,10.060368 c 0,0.407913 -0.349359,0.736184 -0.783126,0.736184 H 6.7912607 C 5.9527082,24.683731 6.0242084,24.20203 6.0079552,23.468867 Z"
     id="path843"
     inkscape:connector-curvature="0"
     sodipodi:nodetypes="csccccscc" /></g></svg>
