<?xml version="1.0" encoding="UTF-8" standalone="no"?>
<svg
   xmlns:dc="http://purl.org/dc/elements/1.1/"
   xmlns:cc="http://creativecommons.org/ns#"
   xmlns:rdf="http://www.w3.org/1999/02/22-rdf-syntax-ns#"
   xmlns:svg="http://www.w3.org/2000/svg"
   xmlns="http://www.w3.org/2000/svg"
   xmlns:sodipodi="http://sodipodi.sourceforge.net/DTD/sodipodi-0.dtd"
   xmlns:inkscape="http://www.inkscape.org/namespaces/inkscape"
   inkscape:version="1.0 (4035a4fb49, 2020-05-01)"
   sodipodi:docname="62_settings.svg"
   id="SVGRoot"
   version="1.1"
   viewBox="0 0 32 32"
   height="32px"
   width="32px">
  <defs
     id="defs10" />
  <sodipodi:namedview
     inkscape:document-rotation="0"
     inkscape:grid-bbox="true"
     inkscape:window-maximized="1"
     inkscape:window-y="0"
     inkscape:window-x="0"
     inkscape:window-height="1015"
     inkscape:window-width="1920"
     showgrid="false"
     inkscape:current-layer="layer1"
     inkscape:document-units="px"
     inkscape:cy="18.066347"
     inkscape:cx="10.776023"
     inkscape:zoom="23.678964"
     inkscape:pageshadow="2"
     inkscape:pageopacity="0.0"
     borderopacity="1.0"
     bordercolor="#666666"
     pagecolor="#ffffff"
     id="base"
     inkscape:snap-global="false" />
  <metadata
     id="metadata13">
    <rdf:RDF>
      <cc:Work
         rdf:about="">
        <dc:format>image/svg+xml</dc:format>
        <dc:type
           rdf:resource="http://purl.org/dc/dcmitype/StillImage" />
        <dc:title></dc:title>
      </cc:Work>
    </rdf:RDF>
  </metadata>
  <g
     style="display:inline"
     id="layer1"
     inkscape:groupmode="layer"
     inkscape:label="Calque 1">
    <path
       d="m 16.048899,8.4993081 c -1.799894,-0.010027 -0.217754,2.3067989 -1.885093,2.9863869 -1.667339,0.679589 -2.151903,-2.0849802 -3.43285,-0.819237 -1.2809471,1.265744 1.477674,1.783578 0.778132,3.442779 -0.699543,1.6592 -2.9974213,0.04819 -3.0090601,1.848243 -0.011639,1.800058 2.3069271,0.215385 2.9849641,1.88226 0.678037,1.666874 -2.0865568,2.154349 -0.82207,3.434273 1.264488,1.279925 1.784342,-1.479085 3.442773,-0.780968 1.658432,0.698118 0.04551,2.99762 1.845405,3.007647 1.799894,0.01003 0.217753,-2.306798 1.885092,-2.986386 1.66734,-0.679589 2.151904,2.083563 3.432851,0.817819 1.280947,-1.265743 -1.476257,-1.78216 -0.776715,-3.44136 0.699543,-1.659201 2.996004,-0.0496 3.007644,-1.849661 0.01164,-1.800059 -2.305511,-0.215385 -2.983548,-1.88226 -0.678037,-1.666875 2.08514,-2.152932 0.820653,-3.432856 -1.264487,-1.2799246 -1.784342,1.477667 -3.442773,0.77955 -1.658431,-0.698117 -0.04551,-2.9962024 -1.845405,-3.0062299 z m 0.0737,4.0678359 a 3.628447,3.6284543 0 0 1 3.628449,3.628453 3.628447,3.6284543 0 0 1 -3.628447,3.628453 3.628447,3.6284543 0 0 1 -3.628447,-3.628453 3.628447,3.6284543 0 0 1 3.628447,-3.628453 z"
       style="fill:#363636;fill-opacity:1;stroke:#363636;stroke-width:1;stroke-linecap:round;stroke-linejoin:round;stroke-miterlimit:4;stroke-dasharray:none;stroke-dashoffset:8.3824;stroke-opacity:1;paint-order:fill markers stroke"
       id="path12" />
  </g>
</svg>
