<?xml version="1.0" encoding="UTF-8" standalone="no"?>
<svg
   xmlns:dc="http://purl.org/dc/elements/1.1/"
   xmlns:cc="http://creativecommons.org/ns#"
   xmlns:rdf="http://www.w3.org/1999/02/22-rdf-syntax-ns#"
   xmlns:svg="http://www.w3.org/2000/svg"
   xmlns="http://www.w3.org/2000/svg"
   xmlns:sodipodi="http://sodipodi.sourceforge.net/DTD/sodipodi-0.dtd"
   xmlns:inkscape="http://www.inkscape.org/namespaces/inkscape"
   version="1.1"
   id="Calque_1"
   x="0px"
   y="0px"
   viewBox="0 0 32 32"
   xml:space="preserve"
   sodipodi:docname="64.svg"
   width="32"
   height="32"
   inkscape:version="1.0 (4035a4fb49, 2020-05-01)"
   inkscape:export-filename="/home/alevy/dev/score/src/lib/resources/icons/new_file_off.png"
   inkscape:export-xdpi="48"
   inkscape:export-ydpi="48"><metadata
   id="metadata17"><rdf:RDF><cc:Work
       rdf:about=""><dc:format>image/svg+xml</dc:format><dc:type
         rdf:resource="http://purl.org/dc/dcmitype/StillImage" /><dc:title>boutons</dc:title></cc:Work></rdf:RDF></metadata><defs
   id="defs15" /><sodipodi:namedview
   pagecolor="#ffffff"
   bordercolor="#666666"
   borderopacity="1"
   objecttolerance="10"
   gridtolerance="10"
   guidetolerance="10"
   inkscape:pageopacity="0"
   inkscape:pageshadow="2"
   inkscape:window-width="1920"
   inkscape:window-height="1015"
   id="namedview13"
   showgrid="true"
   inkscape:zoom="12.575951"
   inkscape:cx="3.6269342"
   inkscape:cy="25.184781"
   inkscape:window-x="0"
   inkscape:window-y="0"
   inkscape:window-maximized="1"
   inkscape:current-layer="layer1"
   inkscape:document-rotation="0"><inkscape:grid
     type="xygrid"
     id="grid17" /></sodipodi:namedview>
<style
   type="text/css"
   id="style2">
	.st0{display:none;fill:#3D3D3D;}
	.st1{display:none;fill:#000100;}
	.st2{fill:#808080;}
</style>
<title
   id="title4">boutons</title>
<rect
   x="0.5"
   y="3.5999985"
   class="st0"
   width="27.9"
   height="27.9"
   id="rect6"
   style="display:none;fill:#3d3d3d" />
<path
   class="st1"
   d="M 28.9,32 H 0 V 3.1 H 28.9 Z M 1,31 H 27.9 V 4.1 H 1 Z"
   id="path8"
   inkscape:connector-curvature="0"
   style="display:none;fill:#000100" />

<g
   inkscape:groupmode="layer"
   id="layer1"
   inkscape:label="Icon"
   style="display:inline;opacity:1"
   transform="translate(0,3.1)"><path
     sodipodi:nodetypes="sscsssccccs"
     d="m 16,7.0660413 c -1.154703,0 -3.464844,0.70448 -3.464844,4.2246097 C 12.535156,14.810779 16,17.334 16,17.334 c 0,0 3.464844,-2.523221 3.464844,-6.043349 0,-3.5201297 -2.310141,-4.2246097 -3.464844,-4.2246097 z m -0.01706,0.2594661 c 0.0057,-1.59e-5 0.01137,-1.59e-5 0.01706,0 1.741462,-0.00239 3.154697,1.464039 3.155636,3.2744906 -9.37e-4,1.810453 -1.414172,3.276919 -3.155636,3.274495 -1.741464,0.0024 -3.154699,-1.464042 -3.155636,-3.274495 9.23e-4,-1.8035392 1.40378,-3.2671442 3.138579,-3.2744906 z"
     style="fill:#363636;fill-opacity:1;stroke:#363636;stroke-width:2;stroke-linecap:round;stroke-linejoin:round;stroke-miterlimit:4;stroke-dasharray:none;stroke-opacity:1"
     id="path23" /></g></svg>
