<?xml version="1.0" encoding="UTF-8" standalone="no"?>
<svg
   xmlns:dc="http://purl.org/dc/elements/1.1/"
   xmlns:cc="http://creativecommons.org/ns#"
   xmlns:rdf="http://www.w3.org/1999/02/22-rdf-syntax-ns#"
   xmlns:svg="http://www.w3.org/2000/svg"
   xmlns="http://www.w3.org/2000/svg"
   xmlns:sodipodi="http://sodipodi.sourceforge.net/DTD/sodipodi-0.dtd"
   xmlns:inkscape="http://www.inkscape.org/namespaces/inkscape"
   width="14"
   height="14"
   viewBox="0 0 3.7041666 3.7041668"
   version="1.1"
   id="svg8"
   inkscape:version="1.0 (4035a4fb49, 2020-05-01)"
   sodipodi:docname="process_record_off.svg"
   inkscape:export-filename="/home/alevy/dev/aklevy.github.io/assets/icon_svg/old_tv.png"
   inkscape:export-xdpi="96"
   inkscape:export-ydpi="96">
  <defs
     id="defs2" />
  <sodipodi:namedview
     id="base"
     pagecolor="#ffffff"
     bordercolor="#666666"
     borderopacity="1.0"
     inkscape:pageopacity="0.0"
     inkscape:pageshadow="2"
     inkscape:zoom="28.648757"
     inkscape:cx="4.9025341"
     inkscape:cy="7.4743704"
     inkscape:document-units="px"
     inkscape:current-layer="layer1"
     showgrid="true"
     units="px"
     inkscape:window-width="1920"
     inkscape:window-height="1015"
     inkscape:window-x="0"
     inkscape:window-y="0"
     inkscape:window-maximized="1"
     inkscape:document-rotation="0"
     inkscape:pagecheckerboard="true"
     inkscape:snap-global="true">
    <inkscape:grid
       type="xygrid"
       id="grid12" />
  </sodipodi:namedview>
  <metadata
     id="metadata5">
    <rdf:RDF>
      <cc:Work
         rdf:about="">
        <dc:format>image/svg+xml</dc:format>
        <dc:type
           rdf:resource="http://purl.org/dc/dcmitype/StillImage" />
        <dc:title></dc:title>
      </cc:Work>
    </rdf:RDF>
  </metadata>
  <g
     inkscape:label="Calque 1"
     inkscape:groupmode="layer"
     id="layer1"
     transform="translate(0,-288.53333)">
    <path
       id="rect844"
       style="fill:#a0a0a0;fill-opacity:1;stroke-width:0.264583;stroke-linecap:round;stroke-linejoin:round;stroke-miterlimit:4;stroke-dasharray:none;stroke-dashoffset:8.3824;paint-order:fill markers stroke"
       d="m 1.8520301,289.21119 c -0.2485402,0 -0.4484805,0.20105 -0.4586712,0.45412 l -0.00135,0.11026 c -2.07e-4,-0.21768 -4.495e-4,0.0374 -4.495e-4,0.10928 v 0.22014 0.10939 4e-4 0.26878 c 0,0.26247 0.2053695,0.47386 0.4604699,0.47386 0.2551004,0 0.4604699,-0.21139 0.4604699,-0.47386 1.966e-4,-0.23542 2.787e-4,-0.47088 -0.00113,-0.70632 l -6.793e-4,-0.11025 c -0.00935,-0.25384 -0.2095683,-0.45582 -0.4586611,-0.45582 z m 0.4600203,0.67574 -6.791e-4,0.22012 z m 0,0.32925 -6.791e-4,4.2e-4 z"
       sodipodi:nodetypes="cccccccsscccsccccccc" />
    <path
       sodipodi:nodetypes="cccc"
       d="m 2.7731313,290.4453 c 3e-7,0.3425 -0.1406567,0.65881 -0.4409349,0.82909 -0.300297,0.17026 -0.669703,0.16845 -0.968278,-0.004 -0.2985939,-0.17316 -0.43618612,-0.49123 -0.43282792,-0.83372"
       style="fill:none;fill-opacity:1;stroke:#a0a0a0;stroke-width:0.3175;stroke-linecap:round;stroke-linejoin:round;stroke-miterlimit:4;stroke-dasharray:none;stroke-dashoffset:8.3824;stroke-opacity:1;paint-order:fill markers stroke"
       id="path854" />
    <path
       id="path866"
       style="fill:#a0a0a0;fill-opacity:1;stroke:#a0a0a0;stroke-width:0.396875;stroke-linecap:round;stroke-linejoin:miter;stroke-miterlimit:4;stroke-dasharray:none;stroke-opacity:1"
       d="m 1.8540831,291.51492 -0.004,0.20558"
       sodipodi:nodetypes="cc" />
  </g>
</svg>
