<?xml version="1.0" encoding="UTF-8" standalone="no"?>
<svg
   xmlns:dc="http://purl.org/dc/elements/1.1/"
   xmlns:cc="http://creativecommons.org/ns#"
   xmlns:rdf="http://www.w3.org/1999/02/22-rdf-syntax-ns#"
   xmlns:svg="http://www.w3.org/2000/svg"
   xmlns="http://www.w3.org/2000/svg"
   xmlns:sodipodi="http://sodipodi.sourceforge.net/DTD/sodipodi-0.dtd"
   xmlns:inkscape="http://www.inkscape.org/namespaces/inkscape"
   inkscape:export-ydpi="96"
   inkscape:export-xdpi="96"
   inkscape:export-filename="/home/alevy/dev/aklevy.github.io/assets/icon_svg/old_tv.png"
   sodipodi:docname="process_record_on.svg"
   inkscape:version="1.0 (4035a4fb49, 2020-05-01)"
   id="svg8"
   version="1.1"
   viewBox="0 0 3.7041666 3.7041668"
   height="14"
   width="14">
  <defs
     id="defs2" />
  <sodipodi:namedview
     inkscape:snap-global="true"
     inkscape:pagecheckerboard="true"
     inkscape:document-rotation="0"
     inkscape:window-maximized="1"
     inkscape:window-y="0"
     inkscape:window-x="0"
     inkscape:window-height="1015"
     inkscape:window-width="1920"
     units="px"
     showgrid="true"
     inkscape:current-layer="layer1"
     inkscape:document-units="px"
     inkscape:cy="6.4464421"
     inkscape:cx="7.6100985"
     inkscape:zoom="38.846725"
     inkscape:pageshadow="2"
     inkscape:pageopacity="0.0"
     borderopacity="1.0"
     bordercolor="#666666"
     pagecolor="#ffffff"
     id="base">
    <inkscape:grid
       id="grid12"
       type="xygrid" />
  </sodipodi:namedview>
  <metadata
     id="metadata5">
    <rdf:RDF>
      <cc:Work
         rdf:about="">
        <dc:format>image/svg+xml</dc:format>
        <dc:type
           rdf:resource="http://purl.org/dc/dcmitype/StillImage" />
        <dc:title></dc:title>
      </cc:Work>
    </rdf:RDF>
  </metadata>
  <g
     transform="translate(0,-288.53333)"
     id="layer1"
     inkscape:groupmode="layer"
     inkscape:label="Calque 1">
    <g
       transform="translate(5.1673434e-4,0.26561684)"
       style="display:inline;opacity:1;fill:#ff9800;fill-opacity:1"
       id="g940">
      <path
         transform="matrix(0.26458334,0,0,0.26458334,0,288.53333)"
         d="m 1.8964844,2.9960938 c -0.4901121,0 -0.90039065,0.4104126 -0.90039065,0.9003906 v 6.2011716 c -4e-8,0.48994 0.41044915,0.900391 0.90039065,0.900391 H 12.099609 C 12.589779,10.998047 13,10.587634 13,10.097656 V 3.8964844 C 13,3.4065442 12.589551,2.9960938 12.099609,2.9960938 Z M 4.4003906,4.9003906 H 9.390625 v 0.021484 c 0.06866,-0.00687 0.1346924,-0.021484 0.2050781,-0.021484 1.1527009,0 2.1054839,0.9449382 2.1054689,2.0976563 -1.4e-5,1.1526803 -0.952788,2.1035156 -2.1054689,2.1035156 C 8.4430221,9.1015625 7.5000144,8.1507272 7.5,6.9980469 7.4999959,6.6750106 7.58083,6.3716991 7.7128906,6.0976562 H 6.2890625 c 0.1328956,0.2740429 0.214848,0.5773544 0.2148437,0.9003907 -1.43e-5,1.1526803 -0.9508345,2.1035156 -2.1035156,2.1035156 -1.1526811,0 -2.0976417,-0.9508353 -2.0976562,-2.1035156 -1.46e-5,-1.1527181 0.944955,-2.0976563 2.0976562,-2.0976563 z m 0,1.1972656 c -0.5041678,0 -0.9023501,0.3962017 -0.9023437,0.9003907 6.3e-6,0.5041512 0.3981854,0.9003906 0.9023437,0.9003906 0.5041584,0 0.9003842,-0.3962394 0.9003906,-0.9003906 6.2e-6,-0.504189 -0.3962228,-0.9003907 -0.9003906,-0.9003907 z m 5.1953125,0 c -0.5041678,0 -0.8925845,0.3962017 -0.8925781,0.9003907 6.4e-6,0.5041512 0.3884198,0.9003906 0.8925781,0.9003906 0.5041579,0 0.9003839,-0.3962394 0.9003909,-0.9003906 6e-6,-0.504189 -0.396223,-0.9003907 -0.9003909,-0.9003907 z"
         style="color:#000000;font-style:normal;font-variant:normal;font-weight:normal;font-stretch:normal;font-size:medium;line-height:normal;font-family:sans-serif;font-variant-ligatures:normal;font-variant-position:normal;font-variant-caps:normal;font-variant-numeric:normal;font-variant-alternates:normal;font-variant-east-asian:normal;font-feature-settings:normal;font-variation-settings:normal;text-indent:0;text-align:start;text-decoration:none;text-decoration-line:none;text-decoration-style:solid;text-decoration-color:#000000;letter-spacing:normal;word-spacing:normal;text-transform:none;writing-mode:lr-tb;direction:ltr;text-orientation:mixed;dominant-baseline:auto;baseline-shift:baseline;text-anchor:start;white-space:normal;shape-padding:0;shape-margin:0;inline-size:0;clip-rule:nonzero;display:inline;overflow:visible;visibility:visible;isolation:auto;mix-blend-mode:normal;color-interpolation:sRGB;color-interpolation-filters:linearRGB;solid-color:#000000;solid-opacity:1;vector-effect:none;fill:#ff9800;fill-opacity:1;fill-rule:nonzero;stroke:none;stroke-width:0.999999;stroke-linecap:round;stroke-linejoin:round;stroke-miterlimit:4;stroke-dasharray:none;stroke-dashoffset:0;stroke-opacity:1;paint-order:markers stroke fill;color-rendering:auto;image-rendering:auto;shape-rendering:auto;text-rendering:auto;enable-background:accumulate;stop-color:#000000;stop-opacity:1"
         id="path942" />
    </g>
  </g>
</svg>
