<?xml version="1.0" encoding="UTF-8" standalone="no"?>
<svg
   xmlns:dc="http://purl.org/dc/elements/1.1/"
   xmlns:cc="http://creativecommons.org/ns#"
   xmlns:rdf="http://www.w3.org/1999/02/22-rdf-syntax-ns#"
   xmlns:svg="http://www.w3.org/2000/svg"
   xmlns="http://www.w3.org/2000/svg"
   xmlns:sodipodi="http://sodipodi.sourceforge.net/DTD/sodipodi-0.dtd"
   xmlns:inkscape="http://www.inkscape.org/namespaces/inkscape"
   inkscape:export-ydpi="96"
   inkscape:export-xdpi="96"
   inkscape:export-filename="/home/alevy/dev/aklevy.github.io/assets/icon_svg/old_tv.png"
   sodipodi:docname="process_record_off.svg"
   inkscape:version="1.0 (4035a4fb49, 2020-05-01)"
   id="svg8"
   version="1.1"
   viewBox="0 0 3.7041666 3.7041668"
   height="14"
   width="14">
  <defs
     id="defs2" />
  <sodipodi:namedview
     inkscape:snap-nodes="false"
     inkscape:snap-global="true"
     inkscape:pagecheckerboard="true"
     inkscape:document-rotation="0"
     inkscape:window-maximized="1"
     inkscape:window-y="0"
     inkscape:window-x="0"
     inkscape:window-height="1015"
     inkscape:window-width="1920"
     units="px"
     showgrid="true"
     inkscape:current-layer="g24"
     inkscape:document-units="px"
     inkscape:cy="12.621759"
     inkscape:cx="7.4204651"
     inkscape:zoom="45.754489"
     inkscape:pageshadow="2"
     inkscape:pageopacity="0.0"
     borderopacity="1.0"
     bordercolor="#666666"
     pagecolor="#ffffff"
     id="base">
    <inkscape:grid
       id="grid12"
       type="xygrid" />
  </sodipodi:namedview>
  <metadata
     id="metadata5">
    <rdf:RDF>
      <cc:Work
         rdf:about="">
        <dc:format>image/svg+xml</dc:format>
        <dc:type
           rdf:resource="http://purl.org/dc/dcmitype/StillImage" />
        <dc:title></dc:title>
      </cc:Work>
    </rdf:RDF>
  </metadata>
  <g
     transform="translate(0,-288.53333)"
     id="layer1"
     inkscape:groupmode="layer"
     inkscape:label="Calque 1"
     style="display:none">
    <rect
       rx="0.10583334"
       y="289.45938"
       x="0.39687482"
       height="1.8520663"
       width="2.9104171"
       id="rect11"
       style="fill:none;stroke:#a0a0a0;stroke-width:0.264583;stroke-linecap:round;stroke-linejoin:round;stroke-miterlimit:4;stroke-dasharray:none;stroke-opacity:1;paint-order:markers stroke fill" />
    <circle
       r="0.39687499"
       cy="290.38541"
       cx="1.1641607"
       id="path836"
       style="fill:none;fill-opacity:1;stroke:#a0a0a0;stroke-width:0.264583;stroke-linecap:round;stroke-linejoin:round;stroke-miterlimit:4;stroke-dasharray:none;stroke-opacity:1;paint-order:markers stroke fill" />
    <circle
       style="fill:none;fill-opacity:1;stroke:#a0a0a0;stroke-width:0.264583;stroke-linecap:round;stroke-linejoin:round;stroke-miterlimit:4;stroke-dasharray:none;stroke-opacity:1;paint-order:markers stroke fill"
       id="path836-3"
       cx="2.5400059"
       cy="290.38541"
       r="0.39687499" />
    <path
       id="path853"
       d="m 1.1642831,289.98854 1.3197808,2e-5"
       style="fill:none;stroke:#a0a0a0;stroke-width:0.264584px;stroke-linecap:butt;stroke-linejoin:miter;stroke-opacity:1" />
  </g>
  <g
     style="display:inline"
     inkscape:label="Copie de Calque 2"
     inkscape:groupmode="layer"
     id="g24"
     transform="translate(0,-288.53333)">
    <g
       transform="translate(0,0.26561684)"
       id="g940"
       style="opacity:1">
      <path
         id="path942"
         style="color:#000000;font-style:normal;font-variant:normal;font-weight:normal;font-stretch:normal;font-size:medium;line-height:normal;font-family:sans-serif;font-variant-ligatures:normal;font-variant-position:normal;font-variant-caps:normal;font-variant-numeric:normal;font-variant-alternates:normal;font-variant-east-asian:normal;font-feature-settings:normal;font-variation-settings:normal;text-indent:0;text-align:start;text-decoration:none;text-decoration-line:none;text-decoration-style:solid;text-decoration-color:#000000;letter-spacing:normal;word-spacing:normal;text-transform:none;writing-mode:lr-tb;direction:ltr;text-orientation:mixed;dominant-baseline:auto;baseline-shift:baseline;text-anchor:start;white-space:normal;shape-padding:0;shape-margin:0;inline-size:0;clip-rule:nonzero;display:inline;overflow:visible;visibility:visible;isolation:auto;mix-blend-mode:normal;color-interpolation:sRGB;color-interpolation-filters:linearRGB;solid-color:#000000;solid-opacity:1;vector-effect:none;fill:#a0a0a0;fill-opacity:1;fill-rule:nonzero;stroke:none;stroke-width:0.999999;stroke-linecap:round;stroke-linejoin:round;stroke-miterlimit:4;stroke-dasharray:none;stroke-dashoffset:0;stroke-opacity:1;paint-order:markers stroke fill;color-rendering:auto;image-rendering:auto;shape-rendering:auto;text-rendering:auto;enable-background:accumulate;stop-color:#000000;stop-opacity:1"
         d="m 1.8964844,2.9960938 c -0.4901121,0 -0.90039065,0.4104126 -0.90039065,0.9003906 v 6.2011716 c -4e-8,0.48994 0.41044915,0.900391 0.90039065,0.900391 H 12.099609 C 12.589779,10.998047 13,10.587634 13,10.097656 V 3.8964844 C 13,3.4065442 12.589551,2.9960938 12.099609,2.9960938 Z M 4.4003906,4.9003906 H 9.390625 v 0.021484 c 0.06866,-0.00687 0.1346924,-0.021484 0.2050781,-0.021484 1.1527009,0 2.1054839,0.9449382 2.1054689,2.0976563 -1.4e-5,1.1526803 -0.952788,2.1035156 -2.1054689,2.1035156 -1.152681,0 -2.0956887,-0.9508353 -2.0957031,-2.1035156 -4.1e-6,-0.3230363 0.08083,-0.6263478 0.2128906,-0.9003907 H 6.2890625 c 0.1328956,0.2740429 0.214848,0.5773544 0.2148437,0.9003907 -1.43e-5,1.1526803 -0.9508345,2.1035156 -2.1035156,2.1035156 -1.1526811,0 -2.0976417,-0.9508353 -2.0976562,-2.1035156 -1.46e-5,-1.1527181 0.944955,-2.0976563 2.0976562,-2.0976563 z m 0,1.1972656 c -0.5041678,0 -0.9023501,0.3962017 -0.9023437,0.9003907 6.3e-6,0.5041512 0.3981854,0.9003906 0.9023437,0.9003906 0.5041584,0 0.9003842,-0.3962394 0.9003906,-0.9003906 6.2e-6,-0.504189 -0.3962228,-0.9003907 -0.9003906,-0.9003907 z m 5.1953125,0 c -0.5041678,0 -0.8925845,0.3962017 -0.8925781,0.9003907 6.4e-6,0.5041512 0.3884198,0.9003906 0.8925781,0.9003906 0.5041579,0 0.9003839,-0.3962394 0.9003909,-0.9003906 6e-6,-0.504189 -0.396223,-0.9003907 -0.9003909,-0.9003907 z"
         transform="matrix(0.26458334,0,0,0.26458334,0,288.53333)" />
    </g>
  </g>
  <g
     transform="translate(0,-288.53333)"
     id="g936"
     inkscape:groupmode="layer"
     inkscape:label="Copie de Copie de Calque 2"
     style="display:none">
    <path
       d="M 0.50270815,289.45938 H 3.2014586 c 0.058632,0 0.1058333,0.0472 0.1058333,0.10583 v 1.6404 c 0,0.0586 -0.047202,0.10584 -0.1058333,0.10584 H 0.50270815 c -0.0586317,0 -0.10583333,-0.0472 -0.10583333,-0.10584 v -1.6404 c 0,-0.0586 0.0472017,-0.10583 0.10583333,-0.10583 z"
       style="fill:#a0a0a0;fill-opacity:1;stroke:#a0a0a0;stroke-width:0.264583;stroke-linecap:round;stroke-linejoin:round;stroke-miterlimit:4;stroke-dasharray:none;stroke-opacity:1;paint-order:markers stroke fill"
       id="path928" />
    <path
       id="path930"
       d="m 1.1640625,289.83008 c -0.30498553,0 -0.55469135,0.2497 -0.5546875,0.55469 3.83e-6,0.30498 0.24970729,0.55664 0.5546875,0.55664 0.3049802,0 0.5566368,-0.25166 0.5566406,-0.55664 3.9e-6,-0.30499 -0.2516551,-0.55469 -0.5566406,-0.55469 z m 0,0.3164 c 0.1333944,0 0.2382829,0.10489 0.2382813,0.23829 -1.7e-6,0.13339 -0.1048894,0.23828 -0.2382813,0.23828 -0.1333919,0 -0.23827957,-0.10489 -0.23828125,-0.23828 -1.68e-6,-0.1334 0.10488685,-0.23829 0.23828125,-0.23829 z"
       style="color:#000000;font-style:normal;font-variant:normal;font-weight:normal;font-stretch:normal;font-size:medium;line-height:normal;font-family:sans-serif;font-variant-ligatures:normal;font-variant-position:normal;font-variant-caps:normal;font-variant-numeric:normal;font-variant-alternates:normal;font-variant-east-asian:normal;font-feature-settings:normal;font-variation-settings:normal;text-indent:0;text-align:start;text-decoration:none;text-decoration-line:none;text-decoration-style:solid;text-decoration-color:#000000;letter-spacing:normal;word-spacing:normal;text-transform:none;writing-mode:lr-tb;direction:ltr;text-orientation:mixed;dominant-baseline:auto;baseline-shift:baseline;text-anchor:start;white-space:normal;shape-padding:0;shape-margin:0;inline-size:0;clip-rule:nonzero;display:inline;overflow:visible;visibility:visible;opacity:1;isolation:auto;mix-blend-mode:normal;color-interpolation:sRGB;color-interpolation-filters:linearRGB;solid-color:#000000;solid-opacity:1;vector-effect:none;fill:#a00000;fill-opacity:1;fill-rule:nonzero;stroke:none;stroke-width:0.3175;stroke-linecap:round;stroke-linejoin:round;stroke-miterlimit:4;stroke-dasharray:none;stroke-dashoffset:0;stroke-opacity:1;paint-order:markers stroke fill;color-rendering:auto;image-rendering:auto;shape-rendering:auto;text-rendering:auto;enable-background:accumulate;stop-color:#000000;stop-opacity:1" />
    <path
       id="path932"
       d="m 2.5390625,289.83008 c -0.3049855,0 -0.5546914,0.2497 -0.5546875,0.55469 3.8e-6,0.30498 0.2497073,0.55664 0.5546875,0.55664 0.3049802,0 0.5566368,-0.25166 0.5566406,-0.55664 3.9e-6,-0.30499 -0.2516551,-0.55469 -0.5566406,-0.55469 z m 0,0.3164 c 0.1333944,0 0.2382829,0.10489 0.2382813,0.23829 -1.7e-6,0.13339 -0.1048894,0.23828 -0.2382813,0.23828 -0.1333919,0 -0.2363264,-0.10489 -0.2363281,-0.23828 -1.7e-6,-0.1334 0.1029337,-0.23829 0.2363281,-0.23829 z"
       style="color:#000000;font-style:normal;font-variant:normal;font-weight:normal;font-stretch:normal;font-size:medium;line-height:normal;font-family:sans-serif;font-variant-ligatures:normal;font-variant-position:normal;font-variant-caps:normal;font-variant-numeric:normal;font-variant-alternates:normal;font-variant-east-asian:normal;font-feature-settings:normal;font-variation-settings:normal;text-indent:0;text-align:start;text-decoration:none;text-decoration-line:none;text-decoration-style:solid;text-decoration-color:#000000;letter-spacing:normal;word-spacing:normal;text-transform:none;writing-mode:lr-tb;direction:ltr;text-orientation:mixed;dominant-baseline:auto;baseline-shift:baseline;text-anchor:start;white-space:normal;shape-padding:0;shape-margin:0;inline-size:0;clip-rule:nonzero;display:inline;overflow:visible;visibility:visible;opacity:1;isolation:auto;mix-blend-mode:normal;color-interpolation:sRGB;color-interpolation-filters:linearRGB;solid-color:#000000;solid-opacity:1;vector-effect:none;fill:#a00000;fill-opacity:1;fill-rule:nonzero;stroke:none;stroke-width:0.3175;stroke-linecap:round;stroke-linejoin:round;stroke-miterlimit:4;stroke-dasharray:none;stroke-dashoffset:0;stroke-opacity:1;paint-order:markers stroke fill;color-rendering:auto;image-rendering:auto;shape-rendering:auto;text-rendering:auto;enable-background:accumulate;stop-color:#000000;stop-opacity:1" />
    <path
       id="path934"
       d="m 1.1640625,289.83008 v 0.3164 H 2.484375 v -0.3164 z"
       style="color:#000000;font-style:normal;font-variant:normal;font-weight:normal;font-stretch:normal;font-size:medium;line-height:normal;font-family:sans-serif;font-variant-ligatures:normal;font-variant-position:normal;font-variant-caps:normal;font-variant-numeric:normal;font-variant-alternates:normal;font-variant-east-asian:normal;font-feature-settings:normal;font-variation-settings:normal;text-indent:0;text-align:start;text-decoration:none;text-decoration-line:none;text-decoration-style:solid;text-decoration-color:#000000;letter-spacing:normal;word-spacing:normal;text-transform:none;writing-mode:lr-tb;direction:ltr;text-orientation:mixed;dominant-baseline:auto;baseline-shift:baseline;text-anchor:start;white-space:normal;shape-padding:0;shape-margin:0;inline-size:0;clip-rule:nonzero;display:inline;overflow:visible;visibility:visible;opacity:1;isolation:auto;mix-blend-mode:normal;color-interpolation:sRGB;color-interpolation-filters:linearRGB;solid-color:#000000;solid-opacity:1;vector-effect:none;fill:#a00000;fill-opacity:1;fill-rule:nonzero;stroke:none;stroke-width:0.3175;stroke-linecap:butt;stroke-linejoin:miter;stroke-miterlimit:4;stroke-dasharray:none;stroke-dashoffset:0;stroke-opacity:1;color-rendering:auto;image-rendering:auto;shape-rendering:auto;text-rendering:auto;enable-background:accumulate;stop-color:#000000;stop-opacity:1" />
  </g>
  <g
     inkscape:label="Copie de Calque 1"
     inkscape:groupmode="layer"
     id="g21"
     transform="translate(0,-288.53333)"
     style="display:none">
    <g
       transform="matrix(0.83312835,0,0,0.83312835,0.30949415,48.457633)"
       id="g965"
       clip-path="none"
       style="opacity:1;stroke-width:1.2003">
      <path
         style="color:#000000;font-style:normal;font-variant:normal;font-weight:normal;font-stretch:normal;font-size:medium;line-height:normal;font-family:sans-serif;font-variant-ligatures:normal;font-variant-position:normal;font-variant-caps:normal;font-variant-numeric:normal;font-variant-alternates:normal;font-variant-east-asian:normal;font-feature-settings:normal;font-variation-settings:normal;text-indent:0;text-align:start;text-decoration:none;text-decoration-line:none;text-decoration-style:solid;text-decoration-color:#000000;letter-spacing:normal;word-spacing:normal;text-transform:none;writing-mode:lr-tb;direction:ltr;text-orientation:mixed;dominant-baseline:auto;baseline-shift:baseline;text-anchor:start;white-space:normal;shape-padding:0;shape-margin:0;inline-size:0;clip-rule:nonzero;display:inline;overflow:visible;visibility:visible;isolation:auto;mix-blend-mode:normal;color-interpolation:sRGB;color-interpolation-filters:linearRGB;solid-color:#000000;solid-opacity:1;vector-effect:none;fill:#a0a0a0;fill-opacity:1;fill-rule:nonzero;stroke:none;stroke-width:0.317578;stroke-linecap:round;stroke-linejoin:round;stroke-miterlimit:4;stroke-dasharray:none;stroke-dashoffset:0;stroke-opacity:1;paint-order:markers stroke fill;color-rendering:auto;image-rendering:auto;shape-rendering:auto;text-rendering:auto;enable-background:accumulate;stop-color:#000000;stop-opacity:1"
         d="m 0.50195312,289.32617 c -0.1296755,0 -0.23828124,0.10864 -0.23828124,0.23828 v 1.64063 c -1e-8,0.12963 0.10865088,0.23828 0.23828124,0.23828 H 3.2011719 c 0.1296906,0 0.2382812,-0.10864 0.2382812,-0.23828 v -1.64063 c 0,-0.12963 -0.1086509,-0.23828 -0.2382812,-0.23828 z m 0.0273438,0.26563 H 3.1757812 v 1.58789 H 0.52929688 Z"
         id="path967" />
      <path
         transform="matrix(0.26458334,0,0,0.26458334,0,288.53333)"
         sodipodi:nodetypes="sssssssssscccccsccccssssssssssss"
         id="path969"
         style="color:#000000;font-style:normal;font-variant:normal;font-weight:normal;font-stretch:normal;font-size:medium;line-height:normal;font-family:sans-serif;font-variant-ligatures:normal;font-variant-position:normal;font-variant-caps:normal;font-variant-numeric:normal;font-variant-alternates:normal;font-variant-east-asian:normal;font-feature-settings:normal;font-variation-settings:normal;text-indent:0;text-align:start;text-decoration:none;text-decoration-line:none;text-decoration-style:solid;text-decoration-color:#000000;letter-spacing:normal;word-spacing:normal;text-transform:none;writing-mode:lr-tb;direction:ltr;text-orientation:mixed;dominant-baseline:auto;baseline-shift:baseline;text-anchor:start;white-space:normal;shape-padding:0;shape-margin:0;inline-size:0;clip-rule:nonzero;display:inline;overflow:visible;visibility:visible;isolation:auto;mix-blend-mode:normal;color-interpolation:sRGB;color-interpolation-filters:linearRGB;solid-color:#000000;solid-opacity:1;vector-effect:none;fill:#a0a0a0;fill-opacity:1;fill-rule:nonzero;stroke:none;stroke-width:1.20029;stroke-linecap:round;stroke-linejoin:round;stroke-miterlimit:4;stroke-dasharray:none;stroke-dashoffset:0;stroke-opacity:1;paint-order:markers stroke fill;color-rendering:auto;image-rendering:auto;shape-rendering:auto;text-rendering:auto;enable-background:accumulate;stop-color:#000000;stop-opacity:1"
         d="M 1.9003906,3.5 C 1.6787908,3.5 1.5,3.6789103 1.5,3.9003906 V 10.099609 C 1.5,10.321241 1.6787905,10.5 1.9003906,10.5 H 12.099609 C 12.321208,10.5 12.5,10.32109 12.5,10.099609 V 3.9003906 C 12.5,3.6787969 12.321211,3.5 12.099609,3.5 Z m 2.3958918,1.4960938 h 5.2284739 v 0.023197 c 0.073145,-0.00808 0.143856,-0.023197 0.2189616,-0.023197 1.4202251,-0.00204 2.1060431,0.9150932 2.0975281,2.1615336 7.92e-4,1.203592 -0.671053,2.1431017 -2.0975281,2.1594249 -1.1510874,0 -2.0954681,-0.9732172 -2.0954823,-2.1594249 C 7.6482308,6.7656736 7.7591513,6.4002232 7.93882,6.0821326 H 6.1748496 C 6.31711,6.3952122 6.3945053,6.7564166 6.3917647,7.1576274 6.3925555,8.3612194 5.7227571,9.3007291 4.2962824,9.3170523 3.145195,9.3170523 2.1987683,8.3438351 2.1987538,7.1576274 2.1987394,5.9713788 3.1451749,4.9960938 4.2962824,4.9960938 Z m 0,1.0860388 c -0.5848621,0 -1.0457022,0.4727603 -1.0456947,1.0754948 7.4e-6,0.6026938 0.4608433,1.08393 1.0456947,1.08393 0.5848514,0 1.0518264,-0.4812362 1.051834,-1.08393 7.5e-6,-0.6027345 -0.4669719,-1.0754948 -1.051834,-1.0754948 z m 5.4474355,0 c -0.5848621,0 -1.0436556,0.4727603 -1.0436485,1.0754948 7.6e-6,0.6026938 0.4587971,1.08393 1.0436485,1.08393 0.5848521,0 1.0518261,-0.4812362 1.0518341,-1.08393 7e-6,-0.6027345 -0.466972,-1.0754948 -1.0518341,-1.0754948 z" />
    </g>
  </g>
</svg>
