<?xml version="1.0" encoding="UTF-8" standalone="no"?>
<svg
   xmlns:dc="http://purl.org/dc/elements/1.1/"
   xmlns:cc="http://creativecommons.org/ns#"
   xmlns:rdf="http://www.w3.org/1999/02/22-rdf-syntax-ns#"
   xmlns:svg="http://www.w3.org/2000/svg"
   xmlns="http://www.w3.org/2000/svg"
   xmlns:sodipodi="http://sodipodi.sourceforge.net/DTD/sodipodi-0.dtd"
   xmlns:inkscape="http://www.inkscape.org/namespaces/inkscape"
   inkscape:export-ydpi="96"
   inkscape:export-xdpi="96"
   inkscape:export-filename="/home/alevy/dev/aklevy.github.io/assets/icon_svg/old_tv.png"
   sodipodi:docname="63.svg"
   inkscape:version="1.0 (4035a4fb49, 2020-05-01)"
   id="svg8"
   version="1.1"
   viewBox="0 0 8.4666665 8.4666669"
   height="32"
   width="32">
  <defs
     id="defs2" />
  <sodipodi:namedview
     inkscape:snap-global="true"
     inkscape:pagecheckerboard="true"
     inkscape:document-rotation="0"
     inkscape:window-maximized="1"
     inkscape:window-y="0"
     inkscape:window-x="0"
     inkscape:window-height="1015"
     inkscape:window-width="1920"
     units="px"
     showgrid="true"
     inkscape:current-layer="layer1"
     inkscape:document-units="px"
     inkscape:cy="13.058757"
     inkscape:cx="16.823239"
     inkscape:zoom="54.753017"
     inkscape:pageshadow="2"
     inkscape:pageopacity="0.0"
     borderopacity="1.0"
     bordercolor="#666666"
     pagecolor="#ffffff"
     id="base">
    <inkscape:grid
       id="grid12"
       type="xygrid" />
  </sodipodi:namedview>
  <metadata
     id="metadata5">
    <rdf:RDF>
      <cc:Work
         rdf:about="">
        <dc:format>image/svg+xml</dc:format>
        <dc:type
           rdf:resource="http://purl.org/dc/dcmitype/StillImage" />
        <dc:title></dc:title>
      </cc:Work>
    </rdf:RDF>
  </metadata>
  <g
     transform="translate(0,-288.53333)"
     id="layer1"
     inkscape:groupmode="layer"
     inkscape:label="Calque 1">
    <path
       sodipodi:nodetypes="cccccccsscccsccccccc"
       d="m 4.2332573,290.65003 c -0.3569822,0 -0.6441595,0.30463 -0.6587966,0.68802 l -0.00194,0.16705 c -2.974e-4,-0.32981 -6.457e-4,0.0568 -6.457e-4,0.1656 v 0.33349 0.16575 6.2e-4 0.40722 c 0,0.39767 0.2949755,0.71793 0.6613801,0.71793 0.3664046,0 0.6613801,-0.32026 0.6613801,-0.71793 2.823e-4,-0.3567 4.003e-4,-0.71341 -0.00162,-1.07011 l -9.756e-4,-0.16705 C 4.8786076,290.95602 4.5910313,290.65 4.2332554,290.65 Z m 0.6607342,1.02382 -9.754e-4,0.33349 z m 0,0.49884 -9.754e-4,6.2e-4 z"
       style="fill:#363636;fill-opacity:1;stroke-width:0.264583;stroke-linecap:round;stroke-linejoin:round;stroke-dashoffset:8.3824;paint-order:fill markers stroke"
       id="rect844" />
    <path
       id="path854"
       style="fill:none;fill-opacity:1;stroke:#363636;stroke-width:0.529167;stroke-linecap:round;stroke-linejoin:round;stroke-miterlimit:4;stroke-dasharray:none;stroke-dashoffset:8.3824;stroke-opacity:1;paint-order:fill markers stroke"
       d="m 5.5562492,292.52193 c 4e-7,0.46914 -0.2020274,0.90241 -0.6333216,1.13566 -0.4313213,0.23321 -0.9619048,0.23073 -1.3907527,-0.006 -0.428875,-0.23719 -0.6265009,-0.67287 -0.6216774,-1.142"
       sodipodi:nodetypes="cccc" />
    <path
       sodipodi:nodetypes="cc"
       d="m 3.4395835,294.63058 1.5874997,0.006"
       style="fill:#000000;fill-opacity:1;stroke:#363636;stroke-width:0.529167;stroke-linecap:round;stroke-linejoin:miter;stroke-miterlimit:4;stroke-dasharray:none;stroke-opacity:1"
       id="path866" />
  </g>
</svg>
